<svg width="960" height="720" viewBox="0 0 960 720" fill="none" xmlns="http://www.w3.org/2000/svg">
  <defs><linearGradient id="bg" x1="0" y1="0" x2="960" y2="720" gradientUnits="userSpaceOnUse"><stop stop-color="#151716"/><stop offset="1" stop-color="#122A27"/></linearGradient><linearGradient id="edge" x1="209" y1="159" x2="761" y2="579" gradientUnits="userSpaceOnUse"><stop stop-color="#FF6A3D"/><stop offset="1" stop-color="#2DD4BF"/></linearGradient></defs>
  <rect width="960" height="720" rx="42" fill="url(#bg)"/>
  <g opacity=".12"><path d="M0 120H960M0 240H960M0 360H960M0 480H960M0 600H960M120 0V720M240 0V720M360 0V720M480 0V720M600 0V720M720 0V720M840 0V720" stroke="#FFF"/></g>
  <g stroke="url(#edge)" stroke-width="7" stroke-linecap="round"><path d="M221 360H390"/><path d="M390 360L544 216"/><path d="M390 360L544 504"/><path d="M544 216H742"/><path d="M544 504H742"/></g>
  <g font-family="Arial, sans-serif" font-weight="700" text-anchor="middle"><g><rect x="112" y="298" width="218" height="124" rx="30" fill="#FFF7ED"/><text x="221" y="350" font-size="19" fill="#191817">YOUR CONTEXT</text><text x="221" y="378" font-size="15" fill="#6B6456">goals • limits • evidence</text></g><g><circle cx="390" cy="360" r="66" fill="#FF6A3D"/><text x="390" y="353" font-size="18" fill="#1B110D">COMPARE</text><text x="390" y="378" font-size="14" fill="#1B110D">trade-offs</text></g><g><rect x="505" y="154" width="236" height="124" rx="30" fill="#DFF7F2"/><text x="623" y="208" font-size="19" fill="#0F4F48">OPTION A</text><text x="623" y="237" font-size="15" fill="#0F766E">strongest fit</text></g><g><rect x="505" y="442" width="236" height="124" rx="30" fill="#FFF0E6"/><text x="623" y="496" font-size="19" fill="#7A2A0C">OPTION B</text><text x="623" y="525" font-size="15" fill="#A53A11">viable alternative</text></g><g><circle cx="780" cy="216" r="58" fill="#2DD4BF"/><text x="780" y="222" font-size="17" fill="#0D2522">TEST</text></g><g><circle cx="780" cy="504" r="58" fill="#FFF7ED"/><text x="780" y="510" font-size="17" fill="#191817">LEARN</text></g></g>
</svg>
